<?xml version="1.0" encoding="utf-8"?>
<!DOCTYPE svg PUBLIC "-//W3C//DTD SVG 1.1//EN" "http://www.w3.org/Graphics/SVG/1.1/DTD/svg11.dtd"><svg xmlns="http://www.w3.org/2000/svg" xmlns:xlink="http://www.w3.org/1999/xlink">
    <symbol viewBox="0 0 12 7" id="arrow" xmlns="http://www.w3.org/2000/svg">
        <path d="M.275.8a.983.983 0 0 1 .7-.257c.283 0 .517.086.7.258l3.9 3.653 3.9-3.653a.983.983 0 0 1 .7-.258c.283 0 .517.086.7.258a.86.86 0 0 1 .275.655.86.86 0 0 1-.275.656l-4.6 4.31a.89.89 0 0 1-.325.2 1.183 1.183 0 0 1-.375.058c-.133 0-.258-.02-.375-.059a.89.89 0 0 1-.325-.2l-4.6-4.309A.86.86 0 0 1 0 1.456.86.86 0 0 1 .275.801Z" />
    </symbol>
    <symbol viewBox="0 0 21 16" id="arrow-nav" xmlns="http://www.w3.org/2000/svg">
        <path d="M20.707 8.707a1 1 0 0 0 0-1.414L14.343.929a1 1 0 1 0-1.414 1.414L18.586 8l-5.657 5.657a1 1 0 0 0 1.414 1.414l6.364-6.364ZM0 9h20V7H0v2Z" />
    </symbol>
    <symbol viewBox="0 0 612.675 612.675" id="attach" xmlns="http://www.w3.org/2000/svg">
        <path d="M581.209 223.007 269.839 530.92c-51.592 51.024-135.247 51.024-186.839 0-51.592-51.023-51.592-133.737 0-184.761L363.248 69.04c34.402-34.009 90.15-34.009 124.553 0 34.402 34.008 34.402 89.166 0 123.174l-280.249 277.12c-17.19 17.016-45.075 17.016-62.287 0-17.19-16.993-17.19-44.571 0-61.587L394.37 161.42l-31.144-30.793-249.082 246.348c-34.402 34.009-34.402 89.166 0 123.174 34.402 34.009 90.15 34.009 124.552 0l280.249-277.12c51.592-51.023 51.592-133.737 0-184.761-51.593-51.023-135.247-51.023-186.839 0L36.285 330.784l1.072 1.071c-53.736 68.323-49.012 167.091 14.5 229.88 63.512 62.79 163.35 67.492 232.46 14.325l1.072 1.072 326.942-323.31-31.122-30.815z" />
    </symbol>
    <symbol viewBox="0 0 16 13" id="check" xmlns="http://www.w3.org/2000/svg">
        <path d="M5.667 13a.955.955 0 0 1-.708-.335L.293 7.313A1.24 1.24 0 0 1 0 6.501c0-.305.106-.597.293-.812a.941.941 0 0 1 .709-.337c.265 0 .52.121.708.337l3.957 4.54L14.29.335c.093-.106.204-.19.325-.249a.891.891 0 0 1 .767 0c.121.058.232.143.325.25.093.106.166.233.217.372a1.298 1.298 0 0 1 0 .88c-.05.139-.124.266-.217.372L6.375 12.665a.955.955 0 0 1-.708.335Z" />
    </symbol>
    <symbol viewBox="0 0 34 39" id="doc" xmlns="http://www.w3.org/2000/svg">
        <path d="M4.065 26.52H1.478a1.44 1.44 0 0 0-1.045.457C.156 27.27 0 27.667 0 28.08v9.36c0 .414.156.81.433 1.103A1.44 1.44 0 0 0 1.478 39h2.587c1.569 0 3.073-.657 4.181-1.828 1.11-1.17 1.732-2.757 1.732-4.412 0-1.655-.623-3.242-1.732-4.412-1.108-1.17-2.612-1.828-4.18-1.828Zm0 9.36H2.957v-6.24h1.108a2.88 2.88 0 0 1 2.09.914 3.21 3.21 0 0 1 .867 2.206 3.21 3.21 0 0 1-.866 2.206 2.88 2.88 0 0 1-2.09.914Zm13.305-9.36c-3.05 0-5.544 2.808-5.544 6.24 0 3.432 2.495 6.24 5.544 6.24 3.049 0 5.543-2.808 5.543-6.24 0-3.432-2.494-6.24-5.543-6.24Zm0 9.36c-1.423 0-2.587-1.404-2.587-3.12 0-1.716 1.164-3.12 2.587-3.12 1.423 0 2.587 1.404 2.587 3.12 0 1.716-1.164 3.12-2.587 3.12Zm16.242-.546c.265.305.404.709.387 1.122-.018.413-.19.802-.479 1.081A5.259 5.259 0 0 1 29.935 39c-3.049 0-5.543-2.808-5.543-6.24 0-3.432 2.494-6.24 5.543-6.24 1.324.009 2.6.529 3.585 1.463.29.279.461.668.479 1.081.017.413-.122.817-.387 1.122-.128.155-.284.28-.46.37a1.4 1.4 0 0 1-1.628-.253c-.434-.42-1-.657-1.589-.663-1.423 0-2.587 1.404-2.587 3.12 0 1.716 1.164 3.12 2.587 3.12a2.317 2.317 0 0 0 1.59-.663c.143-.14.31-.247.494-.317a1.39 1.39 0 0 1 1.133.064c.176.09.332.215.46.37ZM2.217 21.84a1.44 1.44 0 0 0 1.046-.457c.277-.293.433-.69.433-1.103V3.12h16.26v9.36c0 .414.157.81.434 1.103a1.44 1.44 0 0 0 1.045.457h8.87v6.24c0 .414.155.81.433 1.103a1.44 1.44 0 0 0 1.045.457 1.44 1.44 0 0 0 1.045-.457c.278-.293.433-.69.433-1.103v-7.8a1.595 1.595 0 0 0-.113-.604 1.528 1.528 0 0 0-.33-.508L22.488.448c-.281-.29-.66-.45-1.053-.448H3.695a2.88 2.88 0 0 0-2.09.914A3.21 3.21 0 0 0 .74 3.12v17.16c0 .414.156.81.433 1.103a1.44 1.44 0 0 0 1.045.457ZM22.913 5.324l5.304 5.596h-5.304V5.324Z" />
    </symbol>
    <symbol viewBox="0 0 25 21" id="email" xmlns="http://www.w3.org/2000/svg">
        <path d="M21.7 1.008H3.3c-1.27 0-2.3 1.007-2.3 2.25v13.505c0 1.243 1.03 2.25 2.3 2.25h18.4c1.27 0 2.3-1.007 2.3-2.25V3.258c0-1.243-1.03-2.25-2.3-2.25Z" />
        <path d="m24 4.384-10.316 6.414a2.268 2.268 0 0 1-2.368 0L1 4.384" />
    </symbol>
    <symbol viewBox="0 0 60 60" id="estimate" xmlns="http://www.w3.org/2000/svg">
        <path d="M32.956 11.111a7.758 7.758 0 0 0-2.843 1.136c-.23.148-1.67 1.514-3.25 3.087-3.05 3.036-3.46 3.51-3.941 4.669-.23.564-.476 1.529-.565 2.219l-.044.356H22c-1.974.008-7.028.267-8.03.416-1.492.215-2.746 1.313-3.125 2.738-.208.772-.475 6.398-.475 10.057 0 3.488.252 9.122.445 9.99.216.95.965 1.93 1.819 2.382.646.334 1.15.46 2.078.512.772.045.824.038.957-.11.186-.209.186-.572-.007-.765-.119-.12-.304-.164-.846-.216-1.292-.126-1.73-.304-2.316-.957-.542-.601-.63-.935-.757-2.88a126.512 126.512 0 0 1 0-15.912c.09-1.321.141-1.774.26-2.093.208-.557.72-1.099 1.284-1.38.52-.253 1.291-.35 4.208-.528 4.23-.252 11.83.015 12.818.453.712.312 1.306.995 1.506 1.715.12.423.29 3.399.386 6.724.067 2.39.067 3.726 0 6.123-.096 3.37-.267 6.301-.393 6.769-.111.438-.379.86-.757 1.21-.624.57-.883.645-2.761.801-3.132.245-6.888.32-9.686.193-.794-.037-1.276-.03-1.373.015-.363.185-.43.527-.163.838.17.2.186.2 1.47.26 3.733.17 10.487-.074 11.719-.423a3.82 3.82 0 0 0 2.627-2.627c.104-.364.141-.846.312-3.474l.044-.757h5.656c3.354 0 5.856-.03 6.167-.074a2.928 2.928 0 0 0 2.286-1.692l.238-.497V13.264l-.178-.446c-.253-.616-.987-1.358-1.604-1.595-.385-.156-.6-.186-1.632-.208-1.128-.022-1.203-.022-1.396.133-.252.2-.274.58-.044.787.133.119.312.149 1.321.178.987.037 1.202.067 1.455.2.348.186.63.476.823.84.134.252.141.734.164 13.025.015 13.908.044 13.077-.394 13.656-.11.141-.386.349-.616.46l-.423.208-5.863.022-5.863.023v-8.988h4.928l.148-.193c.208-.268.193-.446-.059-.705l-.215-.216H33.23v-.549c0-.297-.023-.653-.045-.78l-.045-.23h11.081l.178-.185c.238-.23.245-.549.015-.764l-.17-.164H33.082v-.319c0-.17-.022-.534-.052-.816l-.044-.497h5.655c5.552 0 5.648 0 5.797-.149.281-.282.163-.742-.23-.883-.164-.06-1.96-.082-5.901-.082h-5.655l-.171-.282c-.245-.386-.713-.883-1.084-1.135-.608-.416-1.187-.58-2.53-.698-1.544-.133-3.697-.26-4.513-.26-.341 0-.623-.015-.623-.037s.066-.178.155-.349c.245-.475.861-1.046 1.44-1.328l.52-.245 1.892-.052c1.685-.037 1.937-.06 2.294-.2.816-.32 1.41-.906 1.721-1.7.156-.393.171-.594.216-2.286.037-1.633.06-1.9.193-2.234a3.326 3.326 0 0 1 2.27-2.004c.313-.081 1.07-.104 3.519-.104 2.946 0 3.14-.007 3.303-.14.237-.194.237-.639 0-.832-.164-.134-.364-.141-3.971-.134-2.761.008-3.934.03-4.327.104Zm-1.306 1.76c-.282.378-.542.942-.676 1.476-.089.364-.119.846-.119 2.004 0 .876-.037 1.64-.081 1.811a1.86 1.86 0 0 1-.898 1.113l-.394.223-1.855.045c-1.165.03-1.967.081-2.152.14-.35.105-.958.409-1.24.602-.29.208-.304.178-.089-.253.386-.771.876-1.32 3.496-3.918 2.575-2.56 2.946-2.895 3.696-3.296.467-.245.527-.237.312.052Z" />
        <path d="M38.463 13.293c-.334.208-4.32 4.253-4.371 4.431-.067.215.059.52.26.624.088.052.274.074.408.052l.252-.045v2.1c0 2.042.007 2.1.156 2.242.148.134.319.14 3.607.14h3.45l.179-.207.178-.208v-4.045l.29.03c.237.022.311-.007.445-.17.327-.424.327-.424-2.048-2.799-1.344-1.336-2.286-2.219-2.398-2.248a.592.592 0 0 0-.408.103Zm1.692 2.59 1.314 1.322-.015 2.256-.022 2.264-2.65.022-2.657.015V17.197l1.314-1.313c.727-.728 1.336-1.322 1.358-1.322.022 0 .63.594 1.358 1.322Z" />
        <path d="M37.172 17.353c-.141.186-.156.297-.156 1.484 0 .706.03 1.366.066 1.463.12.311.394.363 1.826.334 1.715-.03 1.596.104 1.596-1.774 0-1.306-.008-1.41-.148-1.551-.142-.141-.245-.149-1.589-.149H37.32l-.148.193Zm2.219 1.551v.631h-1.262v-1.262h1.262v.631ZM18.906 24.85c-3.124.148-4.78.296-5.128.474-.356.186-.713.601-.802.943-.067.26-.156 1.529-.274 3.718-.06 1.091.022 1.44.43 1.9.557.646-.044.601 8.743.601 8.454 0 8.075.023 8.58-.43.49-.43.586-.713.571-1.722-.015-1.277-.163-3.577-.26-4-.089-.409-.4-.81-.794-1.002-.319-.164-.593-.2-2.605-.342-1.425-.111-7.17-.2-8.46-.14Zm6.36 1.142a97.78 97.78 0 0 1 2.955.186c1.09.089 1.276.126 1.38.252.126.148.149.386.29 3.028.052.89.052 1.41 0 1.544-.164.423.074.408-8.016.408-7.978 0-7.815.008-8.016-.37-.081-.157-.03-1.782.127-3.845.066-.913.037-.891 1.543-1.017 2.82-.245 6.74-.32 9.738-.186ZM42.575 30.66c-.156.156-.216.29-.216.476 0 .207-.037.267-.17.304-.32.081-.757.46-.98.868-.186.342-.223.483-.223.928 0 .712.245 1.12.906 1.507l.46.267.007 1.165c0 1.329 0 1.329-.556.987-.364-.223-.557-.23-.81-.03a.508.508 0 0 0-.022.787c.223.208.728.46 1.07.527.222.045.289.097.303.238.038.334.171.571.357.66.26.119.356.104.579-.074.156-.119.193-.215.193-.46 0-.305.014-.32.378-.483a2.417 2.417 0 0 0 1.114-1.098c.244-.497.252-1.403.014-1.856-.207-.393-.616-.75-1.113-.964l-.393-.178v-.854c0-.468.03-.854.059-.854.03 0 .186.067.342.141.222.12.319.127.497.067.66-.23.363-.98-.512-1.291-.372-.134-.386-.149-.386-.416 0-.208-.045-.312-.193-.423-.267-.208-.446-.193-.705.06Zm-.216 2.51-.007.578-.141-.178c-.082-.097-.148-.238-.148-.32 0-.14.207-.652.267-.652.014 0 .03.26.03.571Zm1.344 2.396c.193.104.363.46.363.757 0 .334-.326.869-.534.876-.037 0-.06-.386-.06-.853 0-.468.023-.854.045-.854s.104.037.186.074ZM14.008 33.778c-.55.111-1.084.549-1.292 1.061-.2.483-.155 4.624.104 8.966.075 1.247.104 1.41.282 1.781.149.304.282.46.55.616.311.193.452.223 1.521.312 4.037.348 9.337.356 13.397.007 1.373-.119 1.692-.252 2.033-.831.186-.32.208-.445.297-1.76.26-3.8.341-8.608.148-9.061-.155-.371-.564-.794-.935-.965-.334-.156-.4-.156-8.09-.163-4.267-.008-7.874.007-8.015.037Zm2.672 1.937v.89H13.71v-.69c0-.623.015-.712.17-.846.23-.215.305-.23 1.633-.237l1.166-.008v.89Zm4.601 0v.89l-1.722-.014-1.729-.023-.022-.771c-.008-.431 0-.824.015-.876.03-.075.4-.097 1.751-.097h1.707v.89Zm4.602 0v.89l-1.722-.014-1.73-.023-.022-.771c-.007-.431 0-.824.015-.876.03-.075.401-.097 1.752-.097h1.707v.89Zm3.978-.646c.156.186.178.275.178.876v.66l-1.5-.014-1.506-.023-.022-.771c-.008-.431 0-.824.022-.884.03-.081.275-.096 1.343-.074l1.307.022.178.208Zm-13.107 3.652v1.002H13.71v-2.004h3.043v1.002Zm4.527 0v1.002h-3.414v-2.004h3.414v1.002Zm4.602 0v1.002h-3.488v-2.004h3.488v1.002Zm4.156-.23c0 .423-.022.875-.045 1.002l-.044.23h-2.954v-2.004h3.043v.772Zm-13.285 3.325v.972l-1.418-.045c-.779-.022-1.432-.052-1.44-.066a14.91 14.91 0 0 1-.074-.936l-.052-.905h2.984v.98Zm4.527.022v1.002l-1.684-.015-1.693-.022-.022-.987-.022-.98H21.28v1.002Zm4.602-.393c0 .341-.023.794-.045 1.002l-.052.393h-3.392v-2.004h3.489v.609Zm4.052-.038c-.022.32-.081 1.262-.126 2.1-.082 1.381-.104 1.53-.252 1.67-.164.172-.2.172-2.004.305l-.668.052.044-1.848c.03-1.017.052-2.07.06-2.353l.007-.497h2.976l-.037.571ZM16.74 43.924c.06.014.09.244.09.808 0 .913.17.824-1.344.698-.55-.037-1.084-.111-1.203-.156-.222-.089-.245-.148-.311-.928l-.045-.534 1.358.037c.75.023 1.403.052 1.455.075Zm4.542.883v.853h-1.098c-.609 0-1.358-.022-1.67-.044l-.572-.052V43.953h3.34v.854Zm4.528-.134c0 .4-.03.772-.067.831-.052.082-.416.112-1.707.141l-1.64.037v-.816c0-.445.022-.839.052-.86.022-.03.794-.053 1.707-.053h1.655v.72Z" />
    </symbol>
    <symbol viewBox="0 0 60 60" id="guarantee" xmlns="http://www.w3.org/2000/svg">
        <path d="M24.653 11.138c-.737.251-1.365.989-2.32 2.69-.863 1.533-1.04 1.659-2.975 2.07-2.028.426-2.706.753-3.192 1.516-.444.703-.503 1.399-.285 3.284.159 1.358.117 1.91-.168 2.388-.109.193-.595.78-1.072 1.299-1.66 1.785-1.978 2.757-1.324 4.089.26.536.486.83 1.6 2.07 1.123 1.248 1.182 1.432.955 3.418-.268 2.388-.025 3.268 1.131 4.022l.202.134-1.835 3.175c-1.014 1.743-1.852 3.277-1.869 3.41-.042.286.176.63.453.696.134.034 1.147-.193 2.974-.678 1.517-.411 2.773-.721 2.782-.704.017.016.36 1.256.754 2.756.62 2.33.754 2.749.938 2.908.26.226.545.243.788.05.092-.084.938-1.491 1.885-3.125l1.71-2.975.502-.134c.277-.084 1.073-.394 1.777-.704 1.902-.837 2.07-.837 4.122.1.553.244 1.24.512 1.533.587l.528.143 1.66 2.899c.913 1.592 1.767 2.991 1.893 3.117.377.394.888.251 1.064-.293.05-.143.394-1.4.763-2.774.368-1.374.687-2.522.712-2.547.025-.025 1.257.285 2.748.679 1.483.402 2.773.729 2.874.729.218 0 .52-.277.587-.536.058-.252.142-.101-1.986-3.746-1.224-2.103-1.735-3.058-1.66-3.075.068-.025.328-.251.587-.511.771-.763.88-1.458.62-3.83-.2-1.776-.125-1.993 1.19-3.401 1.248-1.357 1.701-2.154 1.701-3 0-.896-.394-1.6-1.718-3.066-.502-.545-.98-1.165-1.072-1.375-.193-.427-.218-1.282-.067-2.304.134-.913.117-2.136-.05-2.64-.185-.569-.721-1.155-1.324-1.457-.26-.126-.897-.318-1.408-.436-2.388-.52-2.597-.603-3.067-1.24-.176-.234-.52-.787-.762-1.232-1.014-1.876-1.827-2.58-2.975-2.58-.603-.009-1.106.15-2.555.787-1.919.847-2.137.847-4.198-.092-1.55-.704-2.355-.846-3.15-.561Zm2.02 1.567c.368.159.989.427 1.374.595.377.167.989.368 1.349.444.628.125.679.125 1.357-.042.394-.092 1.182-.386 1.752-.654.578-.26 1.281-.536 1.575-.611.52-.143.528-.134.888.05.427.234.679.561 1.483 1.96 1.181 2.053 1.558 2.305 4.298 2.875 1.165.234 1.693.477 1.953.87.167.244.192.395.192 1.006 0 .394-.042.98-.092 1.308-.05.318-.084.963-.092 1.424 0 1.332.243 1.801 1.894 3.62.787.863 1.047 1.307 1.055 1.767 0 .545-.184.822-1.617 2.414-1.273 1.407-1.474 2.06-1.265 4.047.318 3.016.276 3.066-2.84 3.728-1.995.42-2.422.78-3.754 3.142-.344.612-.662 1.064-.905 1.274-.327.293-.419.327-.796.327-.427 0-.804-.134-2.438-.863-1.768-.796-2.405-.754-4.692.251-.98.436-1.366.57-1.76.595-.486.034-.511.025-.88-.302-.251-.218-.561-.662-.913-1.282-1.324-2.346-1.76-2.714-3.712-3.133-1.726-.377-2.011-.461-2.363-.645-.662-.37-.754-.914-.52-3.11.235-2.144.043-2.622-1.826-4.658-.788-.863-1.056-1.324-1.056-1.801 0-.453.235-.846 1.064-1.76 1.592-1.751 1.877-2.287 1.886-3.485a13.872 13.872 0 0 0-.1-1.592 11.259 11.259 0 0 1-.076-1.525c.033-.545.067-.68.243-.863.326-.352.729-.512 1.851-.755 1.592-.335 2.003-.452 2.53-.737.654-.343 1.065-.838 1.886-2.254.77-1.34.938-1.558 1.357-1.818.377-.235.796-.193 1.71.193Zm-7.03 26.067c1.156.25 1.642.46 1.96.87.126.168.528.822.889 1.45.611 1.081 1.14 1.752 1.65 2.129l.218.159-1.181 2.044-1.173 2.045-.612-2.254c-.679-2.556-.67-2.522-.88-2.631-.251-.143-.435-.1-2.69.503-1.206.326-2.203.57-2.22.553-.067-.067 2.866-5.078 2.975-5.078.058 0 .536.092 1.064.21Zm23.318 2.32c.796 1.383 1.433 2.54 1.408 2.556-.017.025-1.014-.226-2.212-.553-2.178-.595-2.396-.637-2.656-.545-.218.084-.327.386-.922 2.648-.318 1.19-.595 2.162-.62 2.162-.025 0-.57-.897-1.198-1.994-1.148-1.978-1.156-1.986-.964-2.103.486-.319 1.065-1.064 1.71-2.196.787-1.382 1.039-1.692 1.592-1.935.327-.143 2.019-.553 2.329-.562.05 0 .737 1.132 1.533 2.522Z" />
        <path d="M28.44 16.986c-1.114.176-1.96.444-3.016.964-3.1 1.525-5.195 4.34-5.756 7.742-.134.796-.126 2.539.008 3.318.763 4.357 4.215 7.834 8.539 8.588.921.16 2.647.16 3.586 0 2.564-.452 4.985-1.952 6.569-4.072.913-1.223 1.667-2.991 1.935-4.516.134-.78.143-2.522.009-3.318a10.597 10.597 0 0 0-4.03-6.703c-.838-.637-2.456-1.458-3.36-1.71-1.467-.402-3.11-.51-4.483-.293Zm2.774 1.307c1.952.268 3.62 1.09 5.078 2.489a9.028 9.028 0 0 1 .109 12.962c-1.14 1.131-2.497 1.919-4.114 2.363-.763.21-.956.235-2.296.235-1.34 0-1.534-.026-2.304-.235-5.505-1.517-8.346-7.533-5.95-12.602.487-1.03.88-1.609 1.635-2.405 2.07-2.187 4.943-3.209 7.842-2.807Z" />
        <path d="M35.605 23.036c-.067.025-1.684 1.592-3.578 3.485l-3.46 3.444-1.986-1.977c-1.35-1.332-2.078-2.003-2.238-2.045-.469-.117-.896.335-.779.813.034.109 1.098 1.249 2.388 2.522 2.145 2.154 2.346 2.33 2.614 2.33.277 0 .545-.252 4.09-3.796 3.368-3.377 3.787-3.83 3.787-4.056 0-.377-.076-.519-.344-.653-.251-.134-.293-.143-.494-.067Z" />
    </symbol>
    <symbol viewBox="0 0 60 60" id="handshake" xmlns="http://www.w3.org/2000/svg">
        <path d="M29.617 10.422c-.68.375-.39 1.453.383 1.453.398 0 .781-.383.781-.773a.787.787 0 0 0-1.164-.68ZM20.102 12.617c-.32.133-.54.555-.461.867.062.25 5.39 5.657 5.765 5.86.313.164.57.133.836-.094.32-.266.39-.648.18-.984-.25-.399-5.492-5.594-5.742-5.68-.274-.102-.274-.102-.578.031ZM39.258 12.625c-.266.133-5.242 5.055-5.594 5.531-.305.414-.297.696.04 1.032.288.289.546.335.89.156.375-.203 5.703-5.61 5.765-5.86.079-.32-.14-.734-.476-.875-.328-.132-.336-.132-.625.016ZM29.719 13.508c-.094.039-.242.172-.336.289-.156.203-.164.273-.164 2.625 0 2.617.015 2.75.43 2.937a.747.747 0 0 0 .703 0c.414-.187.43-.32.43-2.945v-2.43l-.212-.234c-.234-.25-.586-.352-.851-.242Z" />
        <path d="M17.844 18.133c-.274.14-7.719 9.414-7.797 9.719-.047.18-.047.335.015.46.047.102.985.961 2.086 1.907l2 1.718 1.72 2.313c.937 1.273 1.71 2.336 1.71 2.367 0 .024-.101.211-.234.406-.688 1.079-.563 2.446.312 3.399.36.39 1.149.828 1.5.828.219 0 .219 0 .219.508 0 .32.063.664.164.953.328.89 1.453 1.742 2.29 1.742.288 0 .358.094.358.477 0 .125.063.375.133.554.43 1.102 1.367 1.774 2.555 1.82l.477.016.054.29c.164.773.766 1.523 1.532 1.898.39.195.53.219 1.187.219.664 0 .789-.024 1.164-.22.227-.124.586-.382.79-.57.202-.187.39-.343.413-.343.031 0 .211.117.406.265 1.11.852 2.633.774 3.625-.187.391-.383.696-.977.805-1.563l.078-.445.399-.047c1.148-.14 2.117-1.101 2.336-2.32l.078-.445.398-.047c1.156-.14 2.117-1.094 2.336-2.328.07-.43.094-.461.29-.461.694 0 1.632-.547 2.062-1.196.554-.836.648-1.812.25-2.687l-.188-.406 1.266-2.649 1.273-2.648 1.977-1.703c1.086-.938 2.008-1.79 2.047-1.891.039-.102.07-.273.07-.375 0-.219-6.758-9.063-7.094-9.281a.676.676 0 0 0-.46-.102c-.141.016-1.196.64-2.462 1.445l-2.226 1.415h-5.742l-2.164.625c-1.196.343-2.243.625-2.32.625-.079-.008-1.134-.274-2.337-.61l-2.187-.601-2.25-1.43c-2.242-1.43-2.57-1.586-2.914-1.414Zm2.015 2.695c.79.5 1.477.953 1.532 1.008.086.078-.493.828-3.29 4.227-1.859 2.273-3.43 4.132-3.476 4.132-.164 0-2.742-2.258-2.688-2.351.141-.227 6.391-7.922 6.438-7.922.031 0 .703.406 1.484.906Zm25.375 2.813c1.57 2.047 2.852 3.742 2.852 3.773 0 .063-2.625 2.344-2.695 2.352-.024 0-1.43-1.758-3.118-3.914-2.578-3.282-3.054-3.93-2.968-4.016.133-.125 2.976-1.914 3.039-1.914.023.008 1.32 1.68 2.89 3.719Zm-4.25 3.125c1.844 2.343 3.344 4.28 3.336 4.312-.023.094-2.062 4.352-2.101 4.383-.024.023-2.047-1.969-4.508-4.422-4.375-4.367-4.477-4.46-4.82-4.508a89.29 89.29 0 0 0-2.383-.172c-1.813-.125-2.055-.125-2.258-.015-.164.086-.508.617-1.39 2.18-.641 1.132-1.227 2.124-1.297 2.21-.508.563-1.493.453-1.891-.203-.188-.312-.203-.836-.031-1.18.07-.14.757-1.367 1.53-2.734l1.407-2.476.406-.118c.22-.062 1.47-.43 2.782-.812l2.382-.695 2.743-.008 2.742-.008 3.351 4.266Zm-17.117-3.922c.39.101.852.226 1.04.281.179.047.327.11.327.148 0 .032-.633 1.18-1.414 2.555-1.75 3.078-1.765 3.125-1.851 3.656-.188 1.188.398 2.344 1.484 2.914.375.196.485.22 1.235.22.75 0 .859-.024 1.234-.22.68-.359.945-.703 2.078-2.703l1.078-1.89.281.039c.164.023.946.086 1.75.133l1.453.093 4.766 4.774c4.242 4.242 4.781 4.812 4.86 5.101.257.992-.758 1.836-1.665 1.383-.14-.07-1.46-1.351-2.945-2.851l-2.695-2.735-.336.008c-.531 0-.89.469-.766.984.04.133 1.094 1.25 2.774 2.953 2.953 2.97 2.976 3 2.82 3.665-.164.726-1 1.117-1.664.789-.14-.063-1.078-.961-2.086-1.993l-1.836-1.875-.36.008c-.5 0-.773.266-.773.766v.351l1.907 1.922c1.585 1.594 1.921 1.977 1.992 2.235.234.898-.516 1.664-1.453 1.484-.243-.047-.5-.258-1.47-1.219-1.093-1.086-1.187-1.164-1.468-1.164-.57 0-.945.492-.758.985.047.125.57.718 1.172 1.32 1.203 1.219 1.32 1.422 1.164 2.047-.219.851-1.258 1.148-1.969.562l-.289-.234.141-.25c.102-.188.133-.438.133-1.031 0-.703-.024-.82-.219-1.211-.367-.719-.96-1.219-1.703-1.438l-.32-.093-.016-.665c-.016-.765-.234-1.328-.711-1.859-.36-.39-1.11-.773-1.664-.844-.375-.039-.406-.062-.406-.258 0-.304-.219-1-.422-1.32-.25-.39-.781-.851-1.211-1.047-.273-.125-.516-.164-1.047-.172h-.68l-.086-.312c-.203-.773-.906-1.54-1.68-1.828-.382-.149-.57-.172-1.124-.149-.649.032-1.047.172-1.578.547-.118.086-.157.07-.25-.054l-1.485-1.993c-.758-1.007-1.367-1.882-1.351-1.937.03-.188 7.18-8.836 7.273-8.805.047.016.406.117.79.227Zm-2.61 13.742c.485.32.665.937.43 1.484-.171.407-1.359 1.508-1.734 1.61-.601.164-1.172-.14-1.398-.735-.227-.578-.125-.828.609-1.586.352-.367.75-.726.875-.804.336-.211.883-.196 1.219.03Zm3.243 2.21c.484.235.727.75.617 1.337-.047.242-.242.492-1.156 1.414-.61.617-1.203 1.172-1.32 1.234-.305.157-.836.14-1.141-.047-.508-.312-.719-1.039-.453-1.547.156-.296 2.234-2.335 2.469-2.43.297-.116.687-.1.984.04Zm2.71 2.798c.556.226.86.875.696 1.437-.133.422-2.281 2.547-2.687 2.657-.672.18-1.375-.282-1.446-.946a1.969 1.969 0 0 1 .016-.578c.063-.266 2.156-2.414 2.5-2.57.305-.133.61-.133.922 0Zm2.43 3.43c.54.304.743 1 .47 1.578-.071.148-.415.546-.774.89-.477.461-.727.64-.93.672-.437.086-.828-.023-1.11-.305-.233-.234-.444-.734-.382-.93.016-.054.047-.195.078-.32.031-.14.29-.484.649-.851.875-.906 1.382-1.094 2-.735Z" />
    </symbol>
    <symbol viewBox="0 0 24 24" id="hide" xmlns="http://www.w3.org/2000/svg">
        <path fill-rule="evenodd" clip-rule="evenodd" d="m4.412 3.002 16.97 16.969.001-.002.002.002-1.414 1.414-3.357-3.357c-1.257.586-2.78.972-4.614.972-7.592 0-9.874-6.617-9.896-6.684L2 12l.105-.316c.014-.042.929-2.699 3.515-4.65L3 4.415l1.412-1.412ZM15.087 16.5l-1.797-1.797c-.392.19-.83.296-1.29.296a3.02 3.02 0 0 1-3-3c0-.46.107-.898.296-1.29l-2.26-2.26C5.27 9.667 4.416 11.31 4.116 12c.5 1.154 2.562 5 7.884 5 1.184 0 2.207-.19 3.087-.5Z" />
        <path d="M9.5 5.261C10.261 5.095 11.093 5 12 5c7.592 0 9.874 6.617 9.896 6.684L22 12l-.105.316c-.01.033-.57 1.657-2.044 3.296L18.46 14.22A8.595 8.595 0 0 0 19.883 12c-.499-1.154-2.56-5-7.883-5-.252 0-.498.009-.736.025L9.5 5.261Z" />
    </symbol>
    <symbol viewBox="0 0 97 90" id="home" xmlns="http://www.w3.org/2000/svg">
        <path fill-rule="evenodd" clip-rule="evenodd" d="M11.706 51.026 47.88 15.868l36.173 35.158-.007 38.402H11.714l-.008-38.402Zm14.463-.007h7.037v33.29h-7.037V51.02Zm14.937 0h17.813v33.29H41.106V51.02Zm21.738 0h7.037v18.742h-7.037V51.02ZM0 56.354l1.252-.023L47.88 11.014l39.703 38.503v39.912h8.583l.004-42.338L47.88.156 0 46.691v9.663Zm65.836-43.639V6.242l14.328-.093v20.46L65.836 12.715Z" />
    </symbol>
    <symbol viewBox="0 0 60 60" id="house" xmlns="http://www.w3.org/2000/svg">
        <path d="M16.727 9.141c-.415.252-.482.43-.482 1.35 0 .914.089 1.144.527 1.366l.215.12V16.4l-1.759 1.358c-.972.75-1.855 1.44-1.967 1.544-.26.237-.334.593-.185.875.178.35 1.016 1.396 1.187 1.492.408.23.58.149 1.893-.883l.46-.371v18.102l-.364.237a3.624 3.624 0 0 0-.683.587c-.289.319-.734 1.128-.734 1.32 0 .045-.104.127-.223.179-.616.252-1.188 1.143-1.188 1.833 0 .26-.051.475-.148.63-.126.216-.148.38-.148 1.322 0 .935.022 1.106.148 1.314.304.504-1.27.467 18.243.467h17.657l.155-.17c.216-.23.208-.535-.022-.758-.17-.178-.222-.185-1.076-.185h-.89v-5.344c0-2.939.007-5.343.022-5.343s.386.282.831.623c.438.341.883.638.987.66.379.075.609-.089 1.173-.853.638-.861.705-1.032.504-1.366-.089-.148-2.308-1.915-5.967-4.75-3.206-2.479-5.952-4.586-6.108-4.69-.356-.238-.95-.297-1.314-.141-.14.059-.675.43-1.187.824l-.928.72-.037-.891c-.044-1.01-.126-1.195-.572-1.195-.46 0-.497.126-.541 1.655l-.037 1.35-4.335 3.355c-2.382 1.841-4.438 3.452-4.564 3.578-.178.178-.23.297-.23.52 0 .244.089.393.556 1.009.58.75.839.942 1.195.875.104-.022 2.672-1.952 5.7-4.297l5.507-4.26 4.097 3.177 4.097 3.176.022 5.804.015 5.804h-4.431l-.037-.646c-.03-.549-.06-.66-.2-.779-.223-.178-.564-.17-.75.015-.126.126-.148.245-.148.78v.63h-5.27v-8.535l2.62.015 2.613.022.037 2.583c.037 2.449.044 2.59.178 2.694.356.252.809.037.898-.43.022-.134.037-1.389.022-2.784-.022-2.427-.03-2.545-.178-2.746-.341-.468-.364-.468-3.577-.468-3.162 0-3.251.008-3.563.409l-.163.208v9.032h-4.216l-.022-.876c-.022-.69-.06-.92-.163-1.076-.208-.32-.557-.497-.973-.497h-.363l.052-.357c.111-.89-.304-2.063-.98-2.738-1.35-1.351-3.473-1.41-4.831-.134-.342.32-.35.327-.676.253a2.292 2.292 0 0 0-.675-.03c-.342.044-.342.044-.624-.32-.63-.83-1.684-1.35-2.746-1.35h-.334v-18.6l4.06-3.146c2.241-1.722 4.112-3.14 4.164-3.147.052-.007 1.93 1.41 4.17 3.147l4.083 3.154v1.054c0 .965.015 1.076.148 1.21.245.245.557.223.802-.045.14-.163.163-.267.163-.772v-.593l.861.668c1.21.942 1.306.927 2.227-.312.415-.55.512-.727.512-.95 0-.156-.052-.334-.104-.4-.141-.171-11.994-9.338-12.239-9.464-.297-.156-.987-.133-1.284.045-.141.074-.935.675-1.774 1.32a243.11 243.11 0 0 0-1.61 1.248c-.075.052-.097-.008-.097-.275 0-.29.03-.356.17-.408.275-.111.49-.364.58-.698.119-.452.052-1.447-.119-1.744-.267-.445-.356-.46-3.058-.46-2.241 0-2.449.015-2.657.141Zm4.787 1.343v.371h-4.156v-.742h4.156v.371ZM26.8 11.51c3.458 2.642 10.784 8.357 10.798 8.423.015.052-.074.193-.185.327l-.2.238-5.456-4.224c-2.998-2.33-5.529-4.252-5.618-4.275a.727.727 0 0 0-.334 0c-.096.023-2.375 1.752-5.069 3.838a3261.552 3261.552 0 0 1-5.47 4.23l-.571.438-.223-.29-.23-.289 5.692-4.401c5.44-4.216 5.93-4.587 6.05-4.594.029 0 .4.26.816.579Zm-6.101 1.239v.772l-1.24.972c-.69.527-1.269.965-1.298.965-.038 0-.06-.787-.06-1.744v-1.744h2.598v.779Zm18.57 13.233c5.21 4.023 10.138 7.845 10.257 7.956.14.142.14.142-.038.401-.096.149-.2.267-.23.267-.022 0-2.508-1.907-5.514-4.23-3.013-2.33-5.544-4.253-5.64-4.275a.576.576 0 0 0-.335.044c-.089.053-2.597 1.975-5.574 4.276-2.976 2.3-5.44 4.185-5.47 4.185-.03-.007-.14-.126-.252-.274l-.2-.267.163-.127c7.474-5.796 11.452-8.831 11.556-8.831.074 0 .653.393 1.276.875ZM19.05 39.504c.43.186.958.705 1.195 1.18.215.416.423.49.95.334.676-.193 1.321.022 1.707.586.17.245.208.379.208.75v.453l-.646.037c-.49.03-.675.066-.794.178-.185.163-.208.542-.052.757.104.133.253.14 3.696.178l3.585.037.022.646.023.653H14.24v-1.336h2.672c2.575 0 2.68-.007 2.82-.148a.555.555 0 0 0-.044-.81c-.193-.148-.282-.155-2.672-.155h-2.48v-.2c0-.297.342-.683.78-.876.393-.178.408-.193.63-.891.41-1.277 1.849-1.915 3.103-1.373Zm7.066.534c.95.438 1.506 1.44 1.366 2.45l-.045.356h-3.154l-.037-.542a2.626 2.626 0 0 0-.58-1.536l-.23-.29.35-.237c.192-.127.482-.282.652-.334.46-.156 1.196-.097 1.678.133Z" />
        <path d="M22.694 17.439c-.111.067-.26.222-.334.349-.133.215-.14.467-.14 5.054 0 5.373-.03 5.054.504 5.38.223.142.393.15 3.191.15 3.229 0 3.303-.008 3.607-.431.156-.223.156-.23.156-5.1 0-4.378-.015-4.898-.119-5.083-.267-.453-.237-.445-3.607-.445-2.701.007-3.087.014-3.258.126Zm2.68 2.137v1.15H23.37v-2.3h2.004v1.15Zm3.191 0v1.158l-1.017-.022-1.024-.023-.022-1.135-.023-1.128h2.086v1.15Zm-3.191 3.266v1.002H23.37V21.84h2.004v1.002Zm3.191 0v1.002H26.487V21.84h2.078v1.002Zm-3.191 3.265v1.15H23.37v-2.3h2.004v1.15Zm3.191 0v1.158l-1.017-.022-1.024-.022-.022-1.04c-.008-.563 0-1.076.015-1.128.03-.074.289-.096 1.046-.096h1.002v1.15ZM36.024 39.593c-.297.156-.334.282-.334 1.143 0 .72.023.853.156 1.024a.501.501 0 0 0 .802 0c.133-.17.155-.297.155-1.024-.007-.854-.044-.987-.348-1.143-.193-.104-.238-.104-.43 0Z" />
    </symbol>
    <symbol viewBox="0 0 44 44" id="info" xmlns="http://www.w3.org/2000/svg">
        <circle cx="22" cy="22" r="20" />
        <ellipse cx="22" cy="14.5" rx="3" ry="2.5" />
        <rect x="19" y="19" width="6" height="15" rx="2.5" />
    </symbol>
    <symbol viewBox="0 0 22 23" id="phone" xmlns="http://www.w3.org/2000/svg">
        <path d="M5.5.322c1.392 1.06 2.446 2.551 3.343 3.92l.703 1.08a1.792 1.792 0 0 1-.196 2.204L7.855 9.088l.158.35c.386.817 1.051 1.993 2.053 3.04a10.928 10.928 0 0 0 2.318 1.82l.405.227.36.187.16.077 1.494-1.562a1.602 1.602 0 0 1 2.114-.197l1.117.81c1.27.933 2.595 1.996 3.625 3.376a1.762 1.762 0 0 1 .208 1.71c-.922 2.25-3.256 4.165-5.683 4.07l-.331-.018-.257-.023-.284-.034-.31-.044-.336-.059-.359-.074-.381-.088-.403-.108-.425-.127-.443-.15c-2.034-.721-4.616-2.138-7.265-4.907-2.648-2.767-4.003-5.466-4.693-7.592L.554 9.31l-.121-.443-.104-.422-.086-.398c-.025-.125-.048-.25-.07-.376L.12 7.32l-.044-.324-.032-.297L.02 6.43l-.018-.346C-.087 3.554 1.766 1.098 3.908.14a1.557 1.557 0 0 1 1.593.183ZM4.48 2.404C3.297 3.05 2.153 4.524 2.205 6l.022.378.024.236.032.265.044.291.056.32.072.342.088.369.106.39.126.413c.046.14.094.284.147.432l.17.451.194.469c.692 1.592 1.82 3.455 3.664 5.38 1.842 1.927 3.625 3.107 5.148 3.83l.448.203.432.178c.141.055.279.106.414.154l.394.131.375.11.351.093.329.075.305.059.28.046.253.034.225.023.361.023c1.393.054 2.815-1.134 3.43-2.353-.785-.962-1.76-1.75-2.834-2.545l-.824-.6-.21.229-.447.51-.236.26c-.646.688-1.4 1.272-2.303.89l-.25-.109-.304-.142-.17-.084-.372-.195-.409-.23a13.14 13.14 0 0 1-2.828-2.218 13.635 13.635 0 0 1-2.121-2.956l-.22-.426-.188-.39-.216-.496-.106-.263c-.343-.885.129-1.633.732-2.28l.247-.254.613-.59.22-.22-.52-.797C6.175 4.26 5.418 3.2 4.478 2.403l.001.001Z" />
    </symbol>
    <symbol viewBox="0 0 66 66" id="rule-1" xmlns="http://www.w3.org/2000/svg">
        <rect x="27.651" y="28.679" width="10.815" height="10.815" rx="2.25" />
        <path d="M50.415 37.404a.75.75 0 0 0-1.286-.771l1.286.771Zm-2.166.695a.75.75 0 0 0 1.286.771L48.25 38.1Zm3.925-1.466a.75.75 0 0 0-1.286.771l1.286-.771Zm-.407 2.237a.75.75 0 0 0 1.287-.771l-1.287.771Zm-1.875-5.077v-.75.75Zm1.519 0v-.75.75Zm-19.655-5.864v-4.692h-1.5v4.692h1.5Zm0-4.692c0-2.754 1.215-4.832 3.053-6.25 1.856-1.433 4.367-2.2 6.91-2.236 2.543-.035 5.045.665 6.892 2.073 1.826 1.392 3.05 3.501 3.05 6.413h1.5c0-3.391-1.452-5.937-3.64-7.606-2.166-1.651-5.015-2.418-7.823-2.38-2.808.039-5.649.884-7.806 2.548-2.175 1.679-3.636 4.182-3.636 7.438h1.5Zm19.904 0v9.556h1.5v-9.556h-1.5Zm-2.018 9.556v-9.556h-1.5v9.556h1.5Zm0-9.556c0-2.154-1.02-3.777-2.517-4.834-1.474-1.04-3.395-1.525-5.274-1.515-1.88.01-3.798.517-5.268 1.56-1.491 1.058-2.515 2.669-2.515 4.79h1.5c0-1.574.736-2.753 1.883-3.566 1.168-.83 2.769-1.275 4.408-1.284 1.64-.009 3.237.42 4.402 1.24 1.141.806 1.881 1.992 1.881 3.61h1.5Zm-15.574 0v4.692h1.5v-4.692h-1.5Zm17.343 9.806h-.76v1.5h.76v-1.5Zm-.76 0h-.759v1.5h.76v-1.5Zm-.75.75v2.64h1.5v-2.64h-1.5Zm-.773 2.84-.88 1.466 1.287.771.88-1.466-1.286-.771Zm1.76.771.88 1.466 1.286-.771-.88-1.466-1.286.771Zm-2.746-4.611c0 .966.783 1.75 1.75 1.75v-1.5a.25.25 0 0 1-.25-.25h-1.5Zm3.518 0a.25.25 0 0 1-.25.25v1.5a1.75 1.75 0 0 0 1.75-1.75h-1.5ZM15.996 29.596a.75.75 0 1 0 1.286.771l-1.286-.771Zm2.166-.695a.75.75 0 0 0-1.287-.771l1.287.771Zm-3.925 1.466a.75.75 0 0 0 1.286-.771l-1.286.771Zm.406-2.237a.75.75 0 1 0-1.286.771l1.286-.771Zm1.876 5.077v.75-.75Zm-1.519 0v.75-.75Zm19.654 5.864v4.692h1.5V39.07h-1.5Zm0 4.692c0 2.754-1.214 4.832-3.052 6.25-1.857 1.433-4.367 2.2-6.91 2.236-2.543.035-5.045-.665-6.893-2.073-1.825-1.392-3.049-3.501-3.049-6.413h-1.5c0 3.391 1.452 5.937 3.64 7.606 2.166 1.651 5.015 2.418 7.823 2.38 2.808-.039 5.649-.884 7.805-2.548 2.176-1.679 3.636-4.182 3.636-7.438h-1.5Zm-19.904 0v-9.556h-1.5v9.556h1.5Zm2.019-9.556v9.556h1.5v-9.556h-1.5Zm0 9.556c0 2.154 1.019 3.778 2.516 4.834 1.474 1.04 3.396 1.525 5.275 1.515 1.879-.01 3.797-.517 5.268-1.56 1.491-1.058 2.515-2.669 2.515-4.79h-1.5c0 1.574-.736 2.753-1.883 3.566-1.169.83-2.769 1.275-4.408 1.284-1.64.009-3.237-.42-4.402-1.24-1.141-.806-1.881-1.992-1.881-3.61h-1.5Zm15.574 0V39.07h-1.5v4.692h1.5ZM15 33.957h.76v-1.5H15v1.5Zm.76 0h.759v-1.5h-.76v1.5Zm.75-.75v-2.64h-1.5v2.64h1.5Zm.772-2.84.88-1.466-1.287-.771-.88 1.466 1.287.771Zm-1.76-.771-.879-1.466-1.286.771.88 1.466 1.286-.771Zm2.747 4.611a1.75 1.75 0 0 0-1.75-1.75v1.5a.25.25 0 0 1 .25.25h1.5Zm-3.519 0a.25.25 0 0 1 .25-.25v-1.5a1.75 1.75 0 0 0-1.75 1.75h1.5ZM33.059 31.154l-1.466 2.932h2.345l-1.759 3.226" />
    </symbol>
    <symbol viewBox="0 0 66 66" id="rule-2" xmlns="http://www.w3.org/2000/svg">
        <path d="M16.198 43.915H6m40.35 0H60.5M14 55h38.943M41.472 38.594H21.076c-3.548 0-3.548 5.321 0 5.321h8.198a2 2 0 0 1 2 2v3.764c.443 3.104 5.764 2.66 5.764 0v-3.764a2 2 0 0 1 2-2h2.434c3.99 0 3.99-5.32 0-5.32Z" />
        <path d="m41.726 10.734.59-1.06a2 2 0 0 1 2.642-.818l7.947 3.974a2 2 0 0 1 .854 2.76l-.48.865a1.553 1.553 0 0 1-2.053.635l-9.408 15.34a1.598 1.598 0 0 1-2.12.57l-4.817 8.277a1.066 1.066 0 0 1-1.91-.934l3.623-9.014a1.704 1.704 0 0 1-.778-2.122l6.498-16.574a1.376 1.376 0 0 1-.588-1.899Z" />
        <path d="M42.314 12.633a1.376 1.376 0 0 1-.588-1.899l.59-1.06a2 2 0 0 1 2.642-.818l7.947 3.974a2 2 0 0 1 .854 2.76l-.48.865a1.553 1.553 0 0 1-2.053.635m-8.912-4.457-6.498 16.574c-.315.802.02 1.714.778 2.122m5.72-18.696 8.912 4.457m0 0-9.408 15.34a1.598 1.598 0 0 1-2.12.57m-3.104-1.67-3.624 9.013a1.066 1.066 0 0 0 1.91.934l4.818-8.276m-3.104-1.671L39.698 33" />
    </symbol>
    <symbol viewBox="0 0 66 66" id="rule-3" xmlns="http://www.w3.org/2000/svg">
        <path d="M19 39.5h-3a1 1 0 0 1-1-1V33a1 1 0 0 1 1-1h8.78a1 1 0 0 0 .948-.684l1.544-4.632a1 1 0 0 1 .949-.684h7.602a1 1 0 0 1 .928.629l2.678 6.692c.047.118.071.244.071.372V38.5a1 1 0 0 1-1 1H38m-19 0V42m0-2.5h19m0 0v3" />
        <path d="M32 28.5h-1.72a1 1 0 0 0-.97.758l-.5 2a1 1 0 0 0 .97 1.242H32m0-4h1.856a1 1 0 0 1 .91.586l2.144 4.717c.06.13.09.27.09.414V36a1 1 0 0 1-1 1h-2a1 1 0 0 1-.8-.4l-1-1.333a1 1 0 0 1-.2-.6V32.5m0-4v4M17.65 34.65v1.7M20.65 34.65v1.7M23.65 34.65v1.7M30.5 21.751l-.572-.308-.021.039-.016.041.609.228Zm2.5-2.5-.25-.6-.04.017-.036.021.326.562Zm20.5 11.5v.65a.65.65 0 0 0 .636-.785l-.636.135Zm-3.5-16.5-.641.107.002.014.003.014.636-.135Zm0 24.5v.65h.04l.041-.005-.081-.645Zm3.65-5.251a.65.65 0 1 0-1.3 0h1.3ZM36.428 23.352l.53.375-.53-.375Zm.168-.18.416.499-.416-.5Zm9.604 13.98-.52-.39.52.39ZM29.609 25.98l1.5-4-1.218-.457-1.5 4 1.218.457Zm1.463-3.92c.322-.598.602-.984.925-1.301.328-.32.728-.596 1.33-.946l-.653-1.124c-.635.368-1.143.708-1.585 1.14-.447.437-.8.942-1.161 1.614l1.144.616Zm2.178-2.209 12-5-.5-1.2-12 5 .5 1.2ZM51 31.401h2.5v-1.3H51v1.3Zm3.136-.785-3.5-16.5-1.272.27 3.5 16.5 1.272-.27ZM50.64 14.145c-.304-1.827-1.711-2.795-3.141-2.795s-2.837.968-3.141 2.795l1.282.213c.196-1.175 1.039-1.708 1.859-1.708.82 0 1.663.533 1.859 1.708l1.282-.213ZM50.48 30.36l-4.8 6.4 1.04.78 4.8-6.4-1.04-.78ZM47 39.401H50v-1.3H47v1.3Zm3.081-.005c1.155-.145 2.063-.66 2.677-1.427.607-.76.892-1.722.892-2.718h-1.3c0 .753-.215 1.415-.608 1.906-.386.483-.978.843-1.823.95l.162 1.29Zm3.569-4.145V33.5h-1.3v1.751h1.3Zm-17.507-9.404c.073-.492.151-.835.268-1.142.116-.303.279-.598.547-.977l-1.06-.751c-.311.439-.536.83-.702 1.266-.164.431-.26.878-.339 1.413l1.286.19Zm.869-2.176c3.129-2.609 5.271-3.976 9.318-6.36l-.66-1.12c-4.073 2.4-6.284 3.808-9.49 6.481l.832.999Zm14.599 6.858-6-16.5-1.222.444 6 16.5 1.222-.444Zm-14.653-6.802a.305.305 0 0 1 .054-.056l-.832-.999c-.104.086-.2.188-.283.305l1.061.75Zm8.722 13.034c-.816 1.088-.04 2.64 1.32 2.64v-1.3a.35.35 0 0 1-.28-.56l-1.04-.78Z" />
        <circle cx="47.5" cy="14.5" r=".5" />
        <rect x="14.65" y="42.65" width="27.7" height="7.7" rx="3.85" />
        <circle cx="20" cy="46.5" r="1.35" />
        <circle cx="26" cy="46.5" r="1.35" />
        <circle cx="32" cy="46.5" r="1.35" />
        <circle cx="38" cy="46.5" r="1.35" />
    </symbol>
    <symbol viewBox="0 0 66 66" id="rule-4" xmlns="http://www.w3.org/2000/svg">
        <path d="M18.62 22.407a.341.341 0 0 1-.24.42l-1.078.293.288 1.074a.34.34 0 0 1-.241.421l-.09.013a.344.344 0 0 1-.331-.253l-.34-1.272-1.744-1.006v2.011l.932.928a.348.348 0 0 1 0 .49.352.352 0 0 1-.49 0l-.786-.79-.786.79a.348.348 0 0 1-.49-.49l.932-.928v-2.01l-1.744 1.005-.34 1.272a.344.344 0 0 1-.33.253l-.09-.013a.338.338 0 0 1-.241-.42l.287-1.075-1.078-.292a.345.345 0 1 1 .18-.662l1.268.34 1.745-1.006-1.745-1.006-1.268.34a.343.343 0 0 1-.18-.662l1.078-.292-.287-1.074a.344.344 0 0 1 .661-.18l.34 1.271 1.744 1.006v-2.011l-.932-.928a.348.348 0 0 1 .49-.49l.786.79.786-.79a.348.348 0 0 1 .49.49l-.932.928v2.01l1.744-1.005.34-1.272a.343.343 0 0 1 .68.042.342.342 0 0 1-.018.139l-.288 1.074 1.078.292a.344.344 0 0 1-.09.675l-.09-.013-1.268-.34-1.744 1.006 1.744 1.005 1.268-.339a.337.337 0 0 1 .362.12.34.34 0 0 1 .059.12ZM51.62 16.407a.341.341 0 0 1-.24.42l-1.078.293.288 1.074a.34.34 0 0 1-.241.421l-.09.013a.344.344 0 0 1-.331-.253l-.34-1.272-1.744-1.006v2.011l.932.928a.348.348 0 0 1 0 .49.352.352 0 0 1-.49 0l-.786-.79-.786.79a.348.348 0 0 1-.49-.49l.932-.928v-2.01l-1.744 1.005-.34 1.272a.344.344 0 0 1-.33.253l-.09-.013a.338.338 0 0 1-.241-.42l.288-1.075-1.079-.292a.345.345 0 1 1 .18-.662l1.268.34 1.745-1.006-1.745-1.005-1.268.339a.343.343 0 0 1-.18-.662l1.079-.292-.288-1.074a.344.344 0 0 1 .661-.18l.34 1.271 1.744 1.006v-2.011l-.932-.928a.348.348 0 0 1 .49-.49l.786.79.786-.79a.348.348 0 0 1 .49.49l-.932.928v2.01l1.744-1.005.34-1.272a.343.343 0 0 1 .68.042.342.342 0 0 1-.018.139l-.288 1.074 1.078.292a.344.344 0 0 1-.09.675l-.09-.013-1.268-.34-1.745 1.006 1.745 1.005 1.268-.339a.337.337 0 0 1 .362.12.34.34 0 0 1 .059.12ZM33.5 12 18.67 29.5M33.5 12c-1.658 4.792-1.448 6.423-4.5 11-2.977 3.568-6.442 5.679-10.33 6.5M33.5 12c.891 4.842 2.5 8.5 5.5 12 3.086 2.96 4.432 4.47 9.034 5.5M33.5 12l14.534 17.5M19 41.5h2.5l12-20 12 20H58l-9.966-12M19 41.5H8.5l10.17-12m.33 12c.494-4.697.41-7.315-.33-12m29.364 0v9M13.75 42v11M51.75 42v11" />
        <mask id="ara">
            <rect x="28" y="41" width="10" height="10" rx="1" />
        </mask>
        <rect x="28" y="41" width="10" height="10" rx="1" mask="url(#ara)" />
        <path d="M29 44.5h9" />
    </symbol>
    <symbol viewBox="0 0 66 66" id="rule-5" xmlns="http://www.w3.org/2000/svg">
        <mask id="asa">
            <rect x="13" y="31" width="35" height="8" rx="1" />
        </mask>
        <rect x="13" y="31" width="35" height="8" rx="1" mask="url(#asa)" />
        <path d="M25.5 31v7M17 34.5h-3M22 34.5h-3M35.5 31v7" />
        <mask id="asb">
            <rect x="19" y="37.5" width="35" height="8" rx="1" />
        </mask>
        <rect x="19" y="37.5" width="35" height="8" rx="1" mask="url(#asb)" />
        <path d="M30.5 37.5v7M41.5 37.5v7" />
        <mask id="asc">
            <rect x="12" y="44" width="35" height="8" rx="1" />
        </mask>
        <rect x="12" y="44" width="35" height="8" rx="1" mask="url(#asc)" />
        <path d="M35.5 45v7M24.5 45v7M37.008 21.22l3.247 3.931.544-.475a1 1 0 0 1 .463-.228l1.531-.307a1 1 0 0 0 .796-.856l.356-2.844a1 1 0 0 1 .419-.696l1.263-.884a1 1 0 0 0 .207-1.443L45.5 17l5.216-4.347a1 1 0 0 1 1.421.144l.75.938a1 1 0 0 1-.14 1.393l-4.463 3.719a1 1 0 0 1-1.421-.144l-1.029-1.285a1 1 0 0 1-.207 1.443l-1.263.884a1 1 0 0 0-.42.696l-.355 2.844a1 1 0 0 1-.796.856l-1.531.307a1 1 0 0 0-.463.228l-.544.475 4.194 5.076a1 1 0 0 1-.564 1.616l-12.923 2.74a1 1 0 0 1-1.114-1.4l5.483-11.749a1 1 0 0 1 1.677-.214Z" />
        <path d="m37 28 3.8-3.324a1 1 0 0 1 .462-.228l1.531-.307a1 1 0 0 0 .796-.856l.356-2.844a1 1 0 0 1 .419-.696l1.263-.884a1 1 0 0 0 .207-1.444L45.5 17m0 0 5.216-4.347a1 1 0 0 1 1.421.144l.75.938a1 1 0 0 1-.14 1.393l-4.463 3.719a1 1 0 0 1-1.421-.144L45.5 17ZM30.962 34.584l12.923-2.742a1 1 0 0 0 .564-1.615l-7.441-9.007a1 1 0 0 0-1.677.214l-5.483 11.749a1 1 0 0 0 1.114 1.4Z" />
    </symbol>
    <symbol viewBox="0 0 66 66" id="rule-6" xmlns="http://www.w3.org/2000/svg">
        <rect x="17.6" y="19.1" width="32.8" height="30.8" rx="3.4" />
        <rect x="19.6" y="21.1" width="28.8" height="26.8" rx="1.4" />
        <rect x="22.6" y="24.1" width="22.8" height="10.8" rx="1.4" />
        <circle cx="25.5" cy="41" r="1.9" />
        <circle cx="42.5" cy="41" r="1.9" />
        <path d="M29.5 38h9M31.5 44h5M30.5 41h7M22.5 19v-1a1 1 0 0 1 1-1h.5m7.5 2v-1a1 1 0 0 0-1-1H30m-6 0v-4h6v4m-6 0h6" />
        <path d="M25 14.5h1v1h-1zM28 14.5h1v1h-1zM17.5 32h-2a1 1 0 0 0-1 1v3.5a1 1 0 0 0 1 1h2M29.3 31.239h-.629V32.5h-1.26v-1.261h-3.152l.703-5.04h1.262l-.55 3.783h1.736v-3.15h1.261v3.15h.629v1.257Zm5.335-.72c0 .307-.054.584-.163.83a1.88 1.88 0 0 1-.435.624 1.9 1.9 0 0 1-.633.39c-.237.092-.486.137-.747.137h-2.54v-1.261h2.54c.085 0 .17-.013.255-.04a.622.622 0 0 0 .233-.127.617.617 0 0 0 .167-.224.75.75 0 0 0 .066-.33.68.68 0 0 0-.066-.308.617.617 0 0 0-.167-.224.643.643 0 0 0-.233-.136.715.715 0 0 0-.255-.048h-2.54l.37-3.604h3.889v1.261H31.62l-.114 1.082h1.151c.261 0 .51.045.747.136a1.879 1.879 0 0 1 1.068 1.02c.109.242.163.516.163.821Zm2.25 1.533a.731.731 0 0 1-.453.694.727.727 0 0 1-.589 0 .784.784 0 0 1-.241-.158.794.794 0 0 1-.163-.237.786.786 0 0 1 0-.59.794.794 0 0 1 .163-.237.784.784 0 0 1 .536-.22c.105 0 .203.021.294.062a.732.732 0 0 1 .453.686Zm4.65-2.703c0-.7-.118-1.22-.352-1.56a1.11 1.11 0 0 0-.972-.51c-.413 0-.733.169-.962.506-.229.337-.343.858-.343 1.564 0 .7.114 1.22.343 1.56.228.34.55.51.962.51.208 0 .395-.041.559-.123.164-.085.301-.212.413-.382.114-.17.2-.384.259-.642a4.06 4.06 0 0 0 .092-.923Zm1.199 0c0 .598-.066 1.103-.198 1.516-.132.413-.312.747-.54 1.002-.229.255-.497.44-.805.554a2.834 2.834 0 0 1-.98.167c-.348 0-.676-.057-.984-.172a2.056 2.056 0 0 1-.8-.558c-.225-.257-.404-.591-.536-1.002-.132-.413-.198-.915-.198-1.507 0-.598.066-1.101.198-1.512.132-.413.31-.747.536-1.002.229-.254.495-.439.8-.553.308-.114.636-.172.984-.172.35 0 .676.059.98.176.308.114.576.3.805.558.228.258.408.592.54 1.002.132.41.198.911.198 1.503Z" />
    </symbol>
    <symbol viewBox="0 0 66 66" id="rule-7" xmlns="http://www.w3.org/2000/svg">
        <path d="m40 38.75 2.347-11.5m1.837-9 .653-3.2a1 1 0 0 1 .98-.8H51.5a1 1 0 0 1 1 1v2a1 1 0 0 1-1 1h-5m-2.316 0H46.5m-2.316 0-.613 3m2.929-3L43 38.75m-.143-14H23a1 1 0 0 0-1 1v.5a1 1 0 0 0 1 1h1m18.857-2.5-.51 2.5m.51-2.5.714-3.5m-1.224 6H24m0 0v6.5m-1-9.5c-.004-.724.333-1.072 1.006-1.473.302-.18.491-.494.548-.84.099-.598.325-.93.764-1.13.445-.203.794-.58.882-1.062.07-.39.212-.655.484-.813.497-.289.958-.674 1.067-1.238.09-.47.343-.78.985-.93.442-.104.817-.411.958-.843.348-1.072.91-1.602 2.108-2.092a1.31 1.31 0 0 0 .354-.223c.917-.786 2.177-.807 3.112-.063.159.126.34.225.537.269.518.115.853.261 1.033.558.242.4.49.838.933.99.832.284 1.217.648 1.39 1.255.107.377.348.71.704.876.552.258.825.521.987.887.128.291.322.556.605.701 1.157.593 1.576 1.162 2.114 2.171" />
        <path d="M28 22.25c.342-1.536.698-2.202 2.5-2M31.5 18.285c.342-1.535.698-2.202 2.5-2M36.529 20.215c1.572.068 2.29.301 2.407 2.111M17 34.75l-2.972-12.385a.767.767 0 0 1-.024-.234c.096-1.319 1.79-1.795 2.804-1.047.134.1.217.25.264.41L21 34.75M17 37.75l.934 13.071a1 1 0 0 0 .997.929H29.07a1 1 0 0 0 .997-.929L31 37.75" />
        <rect x="30" y="44.75" width="20" height="7" rx=".5" />
        <path d="M24 37.75c0 5-3 8.5-6.5 11" />
        <rect x="35" y="38.75" width="10" height="6" rx=".5" />
        <path d="M40 45.25v6" />
        <rect x="15" y="34.75" width="17" height="3" rx=".5" />
        <circle cx="24" cy="35.75" r="2" />
    </symbol>
    <symbol viewBox="0 0 66 66" id="rule-8" xmlns="http://www.w3.org/2000/svg">
        <mask id="ava">
            <rect x="17.5" y="14.5" width="32" height="14" rx="1" />
        </mask>
        <rect x="17.5" y="14.5" width="32" height="14" rx="1" mask="url(#ava)" />
        <path d="M29.5 39H31m7 0h-1m-3.25 0v-1.737a1 1 0 0 1 .736-.965l16.778-4.596a1 1 0 0 0 .736-.965V23a1 1 0 0 0-1-1h-2M33.75 39H31m2.75 0H37m-6 0v11.5a1 1 0 0 0 1 1h4a1 1 0 0 0 1-1V39M20.5 15.5c1.326.454 3 .5 3 2.5v4.5c0 1.47 2.399 1.98 2.967.12a.834.834 0 0 0 .033-.243V20.5c0-3 4.5-3 4.5 0v4c0 1.5 3.5 1.5 3.5 0v-4c0-1.5 3-1.5 3 0V22c0 2.5 3.5 2.5 3.5 0v-4.02a1 1 0 0 1 .375-.78l2.125-1.7M19.5 28v9.5c0 2 3.5 2 3.5 0v-4c0-2.5 3.5-2.5 3.5-.5v1.5c0 2.5 3.5 2.5 3.5 0v-4c.002-1.354.51-1.914 2.5-2.5M18 20.5h-2.5a1 1 0 0 0-1 1v1a1 1 0 0 0 1 1H18" />
    </symbol>
    <symbol viewBox="0 0 66 66" id="rule-9" xmlns="http://www.w3.org/2000/svg">
        <path d="m35.414 44.414 9.193 9.192M44.607 44.414l-9.193 9.193M50.568 33.282l-2.416-1.39 1.075-.29a1.209 1.209 0 1 0-.628-2.332l-3.408.919-3.274-1.897 3.274-1.897 3.408.918h.314a1.219 1.219 0 1 0 .314-2.417l-1.075-.23 2.416-1.389a1.212 1.212 0 1 0-1.208-2.102l-2.61 1.522.362-1.341a1.209 1.209 0 1 0-2.332-.629l-.99 3.625-3.082 1.85v-3.783l2.502-2.501a1.209 1.209 0 1 0-1.716-1.704l-.786.786v-2.792a1.208 1.208 0 0 0-2.416 0v2.985l-.98-.979a1.207 1.207 0 0 0-1.715 0 1.208 1.208 0 0 0 0 1.704l2.695 2.695v3.625L35.186 24.4l-.99-3.625a1.21 1.21 0 1 0-2.333.628l.387 1.293-2.61-1.498a1.21 1.21 0 0 0-1.655.447 1.212 1.212 0 0 0 .447 1.655l2.416 1.366-1.015.314a1.22 1.22 0 0 0 .314 2.416h.315l3.407-.918 3.214 1.813-3.274 1.897-3.408-.919a1.208 1.208 0 1 0-.568 2.332l1.076.29-2.417 1.39a1.212 1.212 0 1 0 1.208 2.103l2.55-1.499-.363 1.341a1.209 1.209 0 0 0 .834 1.523c.105.012.21.012.314 0a1.209 1.209 0 0 0 1.209-.894l.99-3.625 3.058-1.849v3.782l-2.502 2.501a1.209 1.209 0 0 0 0 1.704 1.209 1.209 0 0 0 .858.363 1.21 1.21 0 0 0 .858-.363l.786-.785v2.791a1.208 1.208 0 1 0 2.416 0V37.39l.979.98a1.21 1.21 0 1 0 1.716-1.705l-2.695-2.694v-3.625l3.106 1.8.99 3.625a1.208 1.208 0 0 0 1.209.894c.104.012.21.012.314 0a1.206 1.206 0 0 0 .858-1.486l-.435-1.293 2.586 1.499a1.214 1.214 0 0 0 1.806-.896 1.212 1.212 0 0 0-.598-1.207h.024ZM23.25 38.252v.516l.482.184a6.25 6.25 0 0 1-2.232 12.09c-3.52 0-6.75-2.863-6.75-6.25a6.253 6.253 0 0 1 4.018-5.84l.482-.184V20.79c0-.658.25-1.104.595-1.396.36-.306.868-.478 1.405-.478s1.045.172 1.405.478c.345.292.595.738.595 1.397v17.46Z" />
        <circle cx="21.5" cy="45.292" r="1.5" />
        <path d="M21.5 44.292v-2" />
    </symbol>
    <symbol viewBox="0 0 18 18" id="search" xmlns="http://www.w3.org/2000/svg">
        <circle cx="7.5" cy="7.5" r="6.5" />
        <path d="M12.414 12 17 16.586" />
    </symbol>
    <symbol viewBox="0 0 24 24" id="show" xmlns="http://www.w3.org/2000/svg">
        <path d="M12 9a3.02 3.02 0 0 0-3 3c0 1.642 1.358 3 3 3 1.641 0 3-1.358 3-3 0-1.641-1.359-3-3-3Z" />
        <path d="M12 5c-7.592 0-9.874 6.617-9.895 6.684L2 12l.104.316C2.126 12.383 4.408 19 12 19c7.592 0 9.874-6.617 9.895-6.684L22 12l-.104-.316C21.874 11.617 19.592 5 12 5Zm0 12c-5.322 0-7.384-3.846-7.883-5 .5-1.158 2.564-5 7.883-5 5.322 0 7.384 3.846 7.883 5-.5 1.158-2.564 5-7.883 5Z" />
    </symbol>
    <symbol viewBox="0 0 20 21" id="snowflake" xmlns="http://www.w3.org/2000/svg">
        <path d="M4.509 14.775a1.003 1.003 0 0 1-1.74-.592.987.987 0 0 1 .236-.716l1.544-1.75H1c-.245 0-.481-.09-.664-.25a.99.99 0 0 1-.329-.626L0 10.725c0-.243.09-.478.253-.66.162-.181.387-.297.63-.325L1 9.733h2.785L2.24 7.996a.988.988 0 0 1 .088-1.4 1.005 1.005 0 0 1 1.412.086l2.711 3.05h2.548v-2.53l-3.072-2.69a.99.99 0 0 1-.165-1.302l.077-.099a1.002 1.002 0 0 1 1.312-.163l.1.076 1.748 1.532L9 1.795c0-.224.076-.441.216-.616a1 1 0 0 1 .554-.35l.113-.02L10 .801c.245 0 .481.09.664.251a.99.99 0 0 1 .329.626l.007.116-.001 2.776 1.77-1.532a1.005 1.005 0 0 1 1.407.098.987.987 0 0 1-.091 1.396l-3.086 2.673v2.527h2.548l2.702-3.053a1.002 1.002 0 0 1 1.312-.167l.099.076a.99.99 0 0 1 .168 1.302l-.077.1-1.543 1.742H19c.245 0 .481.089.664.25a.99.99 0 0 1 .329.626l.007.116c0 .243-.09.477-.253.659a1.002 1.002 0 0 1-.63.326l-.117.007h-2.793l1.545 1.75a.987.987 0 0 1-.004 1.312l-.089.088a1.005 1.005 0 0 1-1.322-.004l-.089-.088-2.702-3.058h-2.547v2.528l3.087 2.672a.99.99 0 0 1 .173 1.302l-.077.1a1.002 1.002 0 0 1-1.311.17l-.1-.075L11 16.878v2.777c0 .243-.09.478-.253.66a1.003 1.003 0 0 1-.63.325l-.117.007c-.245 0-.481-.09-.664-.25a.99.99 0 0 1-.329-.626L9 19.655l-.001-2.761-1.736 1.52a1.001 1.001 0 0 1-1.101.148 1 1 0 0 1-.507-.57.985.985 0 0 1 .285-1.066l3.059-2.679v-2.53H7.21l-2.701 3.058Z" />
    </symbol>
    <symbol viewBox="0 0 17 16" id="star" xmlns="http://www.w3.org/2000/svg">
        <path d="M16.956 6.046a.899.899 0 0 0-.778-.61l-4.907-.438-1.94-4.46A.904.904 0 0 0 8.5 0a.904.904 0 0 0-.832.54L5.73 4.997l-4.907.438a.9.9 0 0 0-.778.61.876.876 0 0 0 .265.943l3.709 3.194-1.094 4.732a.879.879 0 0 0 .351.916.913.913 0 0 0 .993.042L8.5 13.39l4.231 2.484c.31.183.7.167.993-.042a.88.88 0 0 0 .351-.916l-1.093-4.732L16.69 6.99a.878.878 0 0 0 .265-.943Z" />
    </symbol>
    <symbol viewBox="0 0 60 60" id="tag" xmlns="http://www.w3.org/2000/svg">
        <path d="M42.827 13.044c-2.456.275-5.036 1.012-7.029 2l-.713.354-1.302-.745c-.848-.487-1.389-.746-1.538-.746-.243 0-3.2.895-6.871 2.071-2.534.816-3.734 1.247-4 1.443C21.123 17.61 10 36.851 10 37.101c0 .487-.07.44 8.981 5.672 4.816 2.784 8.88 5.09 9.02 5.13.565.157.314.54 6.33-9.868 3.06-5.31 5.585-9.742 5.609-9.852.047-.25-.188-1.655-.604-3.6-.172-.792-.314-1.49-.314-1.545 0-.055.212-.134.573-.189 1.553-.243 3.569-.831 5.075-1.466 3.906-1.663 6.071-4.307 5.098-6.22-.29-.573-.478-.777-1.066-1.17-.557-.376-1.208-.627-2.189-.83-.667-.15-2.824-.213-3.686-.119Zm3.49 1.68c1.255.274 2 .744 2.094 1.317.102.682-.768 1.788-2.165 2.722-1.286.855-2.957 1.576-4.863 2.094-1.286.345-2.698.588-2.76.47-.056-.086-.683-2.713-.895-3.733-.133-.628-.337-.926-.753-1.098-.126-.055-.227-.118-.227-.15 0-.078 1.74-.752 2.635-1.011 1.286-.384 2.165-.55 3.953-.753.534-.063 2.48.031 2.981.141ZM34.19 16.691l1.977 1.145.416 1.78c.22.981.408 1.813.4 1.852 0 .078-1.655-.008-1.741-.094-.032-.032-.016-.275.03-.541.385-2.095-1.591-4.095-3.694-3.726-1.976.353-3.184 2.267-2.611 4.149.635 2.079 3.137 2.973 4.91 1.75l.321-.22.589.117a17.87 17.87 0 0 0 1.608.165l1.011.055.299 1.333c.156.738.376 1.804.486 2.377l.188 1.043-5.216 9.036c-2.87 4.973-5.24 9.06-5.271 9.091-.032.032-1.585-.823-3.46-1.906-1.874-1.082-4.22-2.44-5.215-3.012-5.06-2.918-7.295-4.212-7.327-4.235-.039-.047 10.354-18.033 10.503-18.167.079-.07.918-.376 1.86-.69 2.039-.667 7.71-2.424 7.851-2.432.055-.007.988.502 2.087 1.13Zm-2.823 2.369c-.055.165-.102.549-.11.855 0 .462.04.635.235 1.035.133.259.384.596.55.753l.313.282h-.314c-1.2 0-2.008-1.317-1.482-2.415.149-.299.682-.8.855-.8.031 0 .015.133-.047.29Zm1.992.204c.267.282.431.863.369 1.27-.024.197-.07.353-.094.353-.118 0-.573-.337-.683-.51-.157-.235-.165-.666-.016-1.02.142-.32.197-.337.424-.093Z" />
        <path d="M20.526 26.01c-.235.134-.11-.07-2.596 4.236-2.408 4.18-2.424 4.204-2.008 4.628.243.235.486.29.832.18.243-.078.431-.384 2.572-4.086 2.573-4.448 2.55-4.393 2.063-4.832-.274-.243-.564-.29-.863-.126ZM24.127 28.317c-.204.203-2.651 4.369-2.816 4.816-.267.69.643 1.325 1.192.831.188-.165 2.612-4.275 2.847-4.824.322-.76-.62-1.388-1.223-.823ZM28.01 30.364c-.157.094-.628.831-1.632 2.565-1.24 2.149-1.404 2.463-1.365 2.698.086.541.604.831 1.09.604.22-.11.455-.47 1.624-2.494.753-1.303 1.38-2.463 1.396-2.589.055-.353-.047-.604-.321-.769-.306-.188-.502-.196-.793-.015ZM31.743 32.529c-.29.156-4.8 8.008-4.8 8.345 0 .385.36.722.768.722.18 0 .377-.055.479-.141.133-.11 4.087-6.863 4.565-7.797.22-.423.196-.737-.078-1.012a.759.759 0 0 0-.934-.117ZM20.338 34.968c-.298.165-.87 1.177-.878 1.561 0 .243.047.345.25.526.55.486 1.044.235 1.57-.816.243-.479.258-.541.172-.8-.102-.306-.463-.589-.745-.589a1.17 1.17 0 0 0-.369.118ZM23.986 37.235c-.118.102-.353.44-.526.745-.345.643-.345.95 0 1.27.251.236.73.252.973.032.321-.29.784-1.168.784-1.482a.743.743 0 0 0-1.231-.565Z" />
    </symbol>
    <symbol viewBox="0 0 22 18" id="telegram" xmlns="http://www.w3.org/2000/svg">
        <path fill-rule="evenodd" clip-rule="evenodd" d="M1.498 7.749c5.849-2.54 9.75-4.215 11.7-5.024C18.772.415 19.929.013 20.684 0c.166-.003.537.038.778.233.203.164.259.386.285.541.027.156.06.51.034.788-.302 3.162-1.609 10.837-2.273 14.379-.282 1.498-.835 2-1.372 2.05-1.165.107-2.05-.767-3.178-1.505-1.766-1.154-2.764-1.872-4.478-2.998-1.98-1.301-.696-2.016.433-3.185.295-.306 5.429-4.96 5.528-5.383.012-.053.024-.25-.093-.354-.118-.104-.29-.068-.416-.04-.177.04-2.998 1.899-8.463 5.576-.8.548-1.526.815-2.176.801-.716-.015-2.094-.403-3.119-.735C.917 9.76-.082 9.545.005 8.854c.046-.36.543-.729 1.493-1.105Z" />
    </symbol>
    <symbol viewBox="0 0 24 24" id="user" xmlns="http://www.w3.org/2000/svg">
        <path fill-rule="evenodd" clip-rule="evenodd" d="M5.2 19.332A9.972 9.972 0 0 1 2 12C2 6.477 6.477 2 12 2s10 4.477 10 10a9.973 9.973 0 0 1-3.2 7.332 7.016 7.016 0 0 0-3.55-4.533 5 5 0 1 0-6.502 0A7.013 7.013 0 0 0 5.2 19.332Zm1.81 1.336A9.954 9.954 0 0 0 12 22c1.817 0 3.52-.485 4.99-1.332a5 5 0 0 0-9.98 0ZM12 8a3 3 0 1 0 0 6 3 3 0 0 0 0-6Z" />
    </symbol>
    <symbol viewBox="0 0 363.301 363.301" xml:space="preserve" id="vk" xmlns="http://www.w3.org/2000/svg">
        <path d="M347.506 240.442c-7.91-9.495-16.899-18.005-25.592-26.235-3.091-2.927-6.287-5.953-9.368-8.962-8.845-8.648-9.167-11.897-2.164-21.72 4.845-6.771 9.982-13.551 14.95-20.108 4.506-5.949 9.166-12.101 13.632-18.273l.917-1.269c8.536-11.811 17.364-24.024 22.062-38.757 1.22-3.887 2.501-9.607-.428-14.39-2.927-4.779-8.605-6.237-12.622-6.918-1.987-.337-3.96-.383-5.791-.383l-55.901-.04-.462-.004c-8.452 0-14.148 3.983-17.412 12.178-3.116 7.83-6.539 16.168-10.445 24.096-7.773 15.787-17.645 33.97-31.93 49.135l-.604.645c-1.687 1.813-3.598 3.866-4.995 3.866-.214 0-.447-.041-.711-.124-2.959-1.153-4.945-8.316-4.855-11.648a6.35 6.35 0 0 0 .002-.138l-.039-64.61c0-.224-.016-.446-.045-.668-1.422-10.503-4.572-17.041-16.474-19.372a4.923 4.923 0 0 0-.961-.094h-58.126c-9.47 0-14.688 3.849-19.593 9.61-1.324 1.54-4.08 4.746-2.714 8.635 1.386 3.947 5.885 4.791 7.35 5.065 7.272 1.384 11.371 5.832 12.532 13.604 2.027 13.496 2.276 27.901.784 45.334-.416 4.845-1.239 8.587-2.595 11.784-.315.746-1.432 3.181-2.571 3.182-.362 0-1.409-.142-3.316-1.456-4.509-3.089-7.808-7.497-11.654-12.942-13.084-18.491-24.065-38.861-33.575-62.288-3.527-8.624-10.114-13.452-18.556-13.594-9.276-.141-17.686-.209-25.707-.209-8.764 0-16.889.081-24.823.246-6.792.12-11.49 2.156-13.962 6.056-2.476 3.903-2.315 9.03.479 15.236 22.366 49.723 42.645 85.876 65.755 117.228 16.193 21.938 32.435 37.123 51.109 47.784 19.674 11.255 41.722 16.727 67.402 16.727 2.911 0 5.921-.071 8.956-.213 14.922-.727 20.458-6.128 21.158-20.657.333-7.425 1.145-15.212 4.795-21.853 2.304-4.184 4.452-4.184 5.158-4.184 1.36 0 3.046.626 4.857 1.799 3.248 2.12 6.033 4.96 8.316 7.441 2.149 2.357 4.274 4.738 6.401 7.12 4.59 5.141 9.336 10.456 14.294 15.497 10.852 11.041 22.807 15.897 36.538 14.843h51.252c.109 0 .219-.004.328-.011 5.107-.337 9.53-3.17 12.135-7.772 3.227-5.701 3.162-12.974-.174-19.46-3.785-7.334-8.695-13.6-12.997-18.759z" />
    </symbol>
    <symbol viewBox="0 0 25 17" id="youtube" xmlns="http://www.w3.org/2000/svg">
        <path fill-rule="evenodd" clip-rule="evenodd" d="M22.95 1.302c.377.376.649.846.788 1.36.802 3.227.617 8.324.016 11.676a3.05 3.05 0 0 1-2.149 2.148C19.723 17 12.14 17 12.14 17s-7.581 0-9.465-.514a3.052 3.052 0 0 1-2.148-2.148C-.28 11.125-.06 6.025.51 2.678A3.051 3.051 0 0 1 2.66.529C4.543.016 12.125 0 12.125 0s7.581 0 9.465.514c.514.139.983.41 1.36.788Zm-6.949 7.197-6.29 3.643V4.856l6.29 3.643Z" />
    </symbol>
</svg>